<svg width="242" height="240" viewBox="0 0 242 240" fill="none" xmlns="http://www.w3.org/2000/svg">
<path d="M181.999 120C149.973 120 123.752 145.137 122.013 176.672C121.872 178.828 122.894 180.891 124.703 182.086C126.512 183.27 128.827 183.398 130.753 182.414C132.68 181.43 133.937 179.484 134.019 177.328C135.417 152.027 156.259 132 181.999 132C195.791 132 208.162 137.777 216.914 147H209.066C206.893 146.965 204.884 148.102 203.791 149.977C202.687 151.84 202.687 154.16 203.791 156.023C204.884 157.898 206.893 159.035 209.066 159H227.898C228.58 159.117 229.273 159.117 229.966 159H239.141V129C239.165 127.383 238.531 125.824 237.379 124.676C236.228 123.527 234.665 122.895 233.032 122.918C229.719 122.965 227.064 125.684 227.111 129V140.332C216.08 127.863 199.938 120 181.999 120ZM236.228 176.918C232.903 176.777 230.107 179.355 229.978 182.672C228.58 207.973 207.739 228 181.999 228C168.206 228 155.847 222.223 147.083 213H154.931C157.104 213.035 159.113 211.898 160.206 210.023C161.31 208.16 161.31 205.84 160.206 203.977C159.113 202.102 157.104 200.965 154.931 201H136.04C135.406 200.906 134.771 200.906 134.137 201H124.856V231C124.821 233.168 125.96 235.172 127.84 236.262C129.708 237.363 132.034 237.363 133.902 236.262C135.782 235.172 136.921 233.168 136.886 231V219.668C147.917 232.137 164.059 240 181.999 240C214.024 240 240.246 214.863 241.984 183.328C242.102 181.711 241.55 180.117 240.469 178.91C239.376 177.703 237.849 176.988 236.228 176.918Z" fill="#0DC900"/>
<path d="M181.597 156.242C168.255 156.242 157.436 167.06 157.436 180.403C157.436 193.745 168.255 204.564 181.597 204.564C194.94 204.564 205.758 193.745 205.758 180.403C205.758 167.06 194.94 156.242 181.597 156.242ZM182.8 192.117L182.811 193.826C182.811 194.063 182.617 194.263 182.379 194.263H180.848C180.61 194.263 180.416 194.069 180.416 193.832V192.138C175.627 191.782 173.373 189.053 173.13 186.087C173.109 185.834 173.308 185.618 173.562 185.618H176.053C176.264 185.618 176.447 185.769 176.479 185.974C176.754 187.683 178.086 188.962 180.476 189.28V181.584L179.143 181.244C176.323 180.57 173.637 178.812 173.637 175.166C173.637 171.234 176.625 169.12 180.443 168.748V166.969C180.443 166.731 180.637 166.537 180.875 166.537H182.39C182.627 166.537 182.822 166.731 182.822 166.969V168.732C186.516 169.104 189.288 171.261 189.611 174.621C189.638 174.875 189.439 175.096 189.18 175.096H186.759C186.543 175.096 186.359 174.934 186.332 174.724C186.117 173.149 184.855 171.865 182.8 171.585V178.828L184.17 179.146C187.665 180.009 190.043 181.681 190.043 185.424C190.043 189.485 187.023 191.75 182.8 192.117ZM176.992 174.918C176.992 176.288 177.838 177.35 179.661 178.008C179.915 178.111 180.168 178.192 180.47 178.278V171.59C178.48 171.844 176.992 172.96 176.992 174.918ZM183.275 182.209C183.124 182.177 182.973 182.139 182.8 182.091V189.301C185.097 189.096 186.683 187.834 186.683 185.72C186.683 184.065 185.826 182.986 183.275 182.209Z" fill="#0DC900"/>
<path d="M59.9987 0C27.9734 0 1.75162 25.1367 0.012901 56.6719C-0.128076 58.8281 0.89401 60.8906 2.70322 62.0859C4.51242 63.2695 6.8268 63.3984 8.75348 62.4141C10.6802 61.4297 11.9372 59.4844 12.0195 57.3281C13.4175 32.0273 34.2587 12 59.9987 12C73.7909 12 86.1617 17.7773 94.914 27H87.0663C84.8929 26.9648 82.884 28.1016 81.7914 29.9766C80.6871 31.8398 80.6871 34.1602 81.7914 36.0234C82.884 37.8984 84.8929 39.0352 87.0663 39H105.898C106.58 39.1172 107.273 39.1172 107.966 39H117.141V9C117.165 7.38281 116.531 5.82422 115.379 4.67578C114.228 3.52734 112.665 2.89453 111.032 2.91797C107.719 2.96484 105.064 5.68359 105.111 9V20.332C94.0799 7.86328 77.938 0 59.9987 0ZM114.228 56.918C110.903 56.7773 108.107 59.3555 107.978 62.6719C106.58 87.9727 85.7387 108 59.9987 108C46.2064 108 33.8474 102.223 25.0833 93H32.9311C35.1045 93.0352 37.1134 91.8984 38.206 90.0234C39.3103 88.1602 39.3103 85.8398 38.206 83.9766C37.1134 82.1016 35.1045 80.9648 32.9311 81H14.0401C13.4057 80.9062 12.7713 80.9062 12.1369 81H2.85594V111C2.82069 113.168 3.96026 115.172 5.83996 116.262C7.7079 117.363 10.034 117.363 11.902 116.262C13.7817 115.172 14.9212 113.168 14.886 111V99.668C25.9174 112.137 42.0594 120 59.9987 120C92.0239 120 118.246 94.8633 119.984 63.3281C120.102 61.7109 119.55 60.1172 118.469 58.9102C117.376 57.7031 115.849 56.9883 114.228 56.918Z" fill="#0DC900"/>
<path d="M53.8568 36.2416C51.3806 36.3923 49.6328 37.2883 48.6627 38.9296L42.2909 50.2378L46.5489 52.7404L35.5869 54.1307L38.9389 56.1081L36.0097 61.206C35.3944 62.2951 35.0396 64.736 36.1909 66.5202C36.6476 67.227 38.1198 69.9227 39.4221 72.2979C40.547 74.3486 41.6001 76.2797 42.0795 77.0868C42.6382 77.8631 43.1893 78.6278 43.2573 78.7243C43.261 78.7243 42.0229 76.5964 44.2236 72.6995L49.931 62.5964L53.283 64.5737L48.9949 54.1925L53.2528 56.6951L62.3727 40.5363C64.2185 37.0102 65.6945 36.4 66.0266 36.3034C66.1927 36.3034 66.3286 36.3034 66.4796 36.3034C66.3513 36.2996 66.2192 36.2687 66.087 36.2725C66.0078 36.2725 65.9247 36.2687 65.8455 36.2725C64.4979 36.2996 62.1688 36.2918 59.3529 36.2725C57.6806 36.2609 55.8461 36.2455 53.8568 36.2416ZM67.295 36.3961C66.7174 36.6819 65.468 37.6204 63.943 40.5363L60.44 46.7465L62.4935 50.4231L59.1415 52.4314L70.0732 53.7909L65.8153 56.2935L71.3415 66.0877H78.5287C81.5523 66.0877 83.0546 65.0913 83.6926 64.4502C83.87 63.2375 83.6888 62.1136 83.149 61.1133L76.7772 49.8361L72.5192 52.3387L76.8376 41.9575L73.4856 43.9349L70.6168 38.806C70.1298 37.9409 68.8502 36.7707 67.295 36.3961ZM66.5098 63.6468L59.8662 72.6686V67.6325H48.8137L45.2201 73.9972C43.7102 76.6775 43.8197 78.5158 44.0424 79.4041C44.9823 80.1688 46.0053 80.5859 47.1226 80.609H59.8662V75.542L66.5098 84.5638V80.609L72.2777 80.6399C73.5082 80.6399 75.7504 79.7748 76.6866 77.8592C77.0565 77.1023 78.6193 74.422 79.9782 72.0816C81.1521 70.0579 82.2506 68.1539 82.696 67.3235C83.0773 66.4391 83.4321 65.5779 83.4812 65.4697C83.4812 65.4697 82.3223 67.6325 77.9247 67.6325H66.5098V63.6468Z" fill="#0DC900"/>
</svg>
